<svg width="70" height="62" fill="none" xmlns="http://www.w3.org/2000/svg">
  <path style="fill: #DB643F" d="M37.83 10.99c-10.84 0-19.62 8.62-19.62 19.24 0 4.69 1.72 8.99 4.56 12.33-.52 1.4-1.36 2.32-3.75 2.64-2.42.33-4.95 1.04-6.42 4.04l2.21 1.17c1.02-2.09 2.4-2.43 4.83-2.76 2.62-.36 4.13-1.56 5-3.2 3.49 3.11 8.1 5.02 13.19 5.02 10.84 0 19.62-8.61 19.62-19.24.01-10.63-8.78-19.24-19.62-19.24zm-.33 22.79l12.79-12.79v3.31L38.92 35.67l-1.42-1.89zm3.57-7.16h-8.96l-2.01-2.68h13.65l-2.68 2.68zm-2.54 2.54l-2.57 2.57-1.93-2.57h4.5zm7.76-7.76H28.2l-2.04-2.71H49l-2.71 2.71zm-20.87.51L43.5 45.98c-.79.27-1.6.5-2.44.66L25.42 25.9v-3.99zm18.06 19.83l2.23-2.23v5.19l-2.23-2.96zm-1.54-2.05l-1.48-1.96 9.83-9.83v3.44l-8.35 8.35zm10.89-17.42c1.31 2.37 2.05 5.07 2.05 7.95s-.74 5.59-2.05 7.95v-15.9zM47 16.15H28.66a17.22 17.22 0 019.17-2.64c3.38 0 6.52.97 9.17 2.64zm-24.12 6.04v16.08c-1.34-2.39-2.1-5.12-2.1-8.04 0-2.92.76-5.65 2.1-8.04zm2.54 19.48v-3.63l5.81 7.6c-2.22-.9-4.19-2.28-5.81-3.97zm9.81 5.07l-9.81-12.85V30.1l12.7 16.84c-.1 0-.19.01-.29.01-.89 0-1.75-.09-2.6-.21zm13.02-3.29v-6.47l2.04-2.04v6.68c-.63.66-1.31 1.27-2.04 1.83z" fill="#000"/>
</svg>
